<svg width="436" height="436" xmlns="http://www.w3.org/2000/svg" xmlns:xlink="http://www.w3.org/1999/xlink" xml:space="preserve" overflow="hidden"><defs><filter id="fx0" x="-10%" y="-10%" width="120%" height="120%" filterUnits="userSpaceOnUse" primitiveUnits="userSpaceOnUse"><feComponentTransfer color-interpolation-filters="sRGB"><feFuncR type="discrete" tableValues="0 0"/><feFuncG type="discrete" tableValues="0 0"/><feFuncB type="discrete" tableValues="0 0"/><feFuncA type="linear" slope="0.631373" intercept="0"/></feComponentTransfer><feGaussianBlur stdDeviation="6.875 6.875"/></filter><clipPath id="clip1"><rect x="2885" y="1166" width="436" height="436"/></clipPath><linearGradient x1="3103" y1="1180" x2="3103" y2="1574" gradientUnits="userSpaceOnUse" spreadMethod="reflect" id="fill2"><stop offset="0" stop-color="#66B352"/><stop offset="0.5" stop-color="#4BAD28"/><stop offset="1" stop-color="#3F9E1D"/></linearGradient><linearGradient x1="3103" y1="1180" x2="3103" y2="1574" gradientUnits="userSpaceOnUse" spreadMethod="reflect" id="fill3"><stop offset="0" stop-color="#529042"/><stop offset="0.5" stop-color="#3C8B20"/><stop offset="1" stop-color="#337F17"/></linearGradient><linearGradient x1="3103" y1="1180" x2="3103" y2="1574" gradientUnits="userSpaceOnUse" spreadMethod="reflect" id="fill4"><stop offset="0" stop-color="#84C274"/><stop offset="0.5" stop-color="#6EBD52"/><stop offset="1" stop-color="#65B149"/></linearGradient></defs><g clip-path="url(#clip1)" transform="translate(-2885 -1166)"><g filter="url(#fx0)" transform="translate(2884 1165)"><g><rect x="22" y="120.375" width="295.5" height="295.5" fill="#FF0000"/><path d="M317.5 120.375 416 21.8751 416 317.375 317.5 415.875Z" fill="#FF0000" fill-rule="evenodd"/><path d="M22 120.375 120.5 21.8751 416 21.8751 317.5 120.375Z" fill="#FF0000" fill-rule="evenodd"/></g></g><rect x="2906" y="1278.5" width="295.5" height="295.5" fill="url(#fill2)"/><path d="M3201.5 1278.5 3300 1180 3300 1475.5 3201.5 1574Z" fill="url(#fill3)" fill-rule="evenodd"/><path d="M2906 1278.5 3004.5 1180 3300 1180 3201.5 1278.5Z" fill="url(#fill4)" fill-rule="evenodd"/><path d="M3104.5 1342C3104.5 1322.95 3119.95 1307.5 3139 1307.5 3158.05 1307.5 3173.5 1322.95 3173.5 1342 3173.5 1361.05 3158.05 1376.5 3139 1376.5 3119.95 1376.5 3104.5 1361.05 3104.5 1342Z" stroke="#000000" stroke-width="6.875" stroke-miterlimit="8" fill="#FFFFFF" fill-rule="evenodd"/><path d="M2931.5 1342C2931.5 1322.95 2947.17 1307.5 2966.5 1307.5 2985.83 1307.5 3001.5 1322.95 3001.5 1342 3001.5 1361.05 2985.83 1376.5 2966.5 1376.5 2947.17 1376.5 2931.5 1361.05 2931.5 1342Z" stroke="#000000" stroke-width="6.875" stroke-miterlimit="8" fill="#FFFFFF" fill-rule="evenodd"/><path d="M3017.5 1428C3017.5 1408.95 3033.17 1393.5 3052.5 1393.5 3071.83 1393.5 3087.5 1408.95 3087.5 1428 3087.5 1447.05 3071.83 1462.5 3052.5 1462.5 3033.17 1462.5 3017.5 1447.05 3017.5 1428Z" stroke="#000000" stroke-width="6.875" stroke-miterlimit="8" fill="#FFFFFF" fill-rule="evenodd"/><path d="M2931.5 1514C2931.5 1494.95 2947.17 1479.5 2966.5 1479.5 2985.83 1479.5 3001.5 1494.95 3001.5 1514 3001.5 1533.05 2985.83 1548.5 2966.5 1548.5 2947.17 1548.5 2931.5 1533.05 2931.5 1514Z" stroke="#000000" stroke-width="6.875" stroke-miterlimit="8" fill="#FFFFFF" fill-rule="evenodd"/><path d="M3104.5 1514C3104.5 1494.95 3119.95 1479.5 3139 1479.5 3158.05 1479.5 3173.5 1494.95 3173.5 1514 3173.5 1533.05 3158.05 1548.5 3139 1548.5 3119.95 1548.5 3104.5 1533.05 3104.5 1514Z" stroke="#000000" stroke-width="6.875" stroke-miterlimit="8" fill="#FFFFFF" fill-rule="evenodd"/><path d="M3065.5 1228C3065.5 1221.1 3082.74 1215.5 3104 1215.5 3125.26 1215.5 3142.5 1221.1 3142.5 1228 3142.5 1234.9 3125.26 1240.5 3104 1240.5 3082.74 1240.5 3065.5 1234.9 3065.5 1228Z" stroke="#000000" stroke-width="6.875" stroke-miterlimit="8" fill="#FFFFFF" fill-rule="evenodd"/><path d="M3279 1223.5C3285.9 1223.5 3291.5 1240.96 3291.5 1262.5 3291.5 1284.04 3285.9 1301.5 3279 1301.5 3272.1 1301.5 3266.5 1284.04 3266.5 1262.5 3266.5 1240.96 3272.1 1223.5 3279 1223.5Z" stroke="#000000" stroke-width="6.875" stroke-miterlimit="8" fill="#FFFFFF" fill-rule="evenodd"/><path d="M3252.5 1337.5C3259.68 1337.5 3265.5 1354.74 3265.5 1376 3265.5 1397.26 3259.68 1414.5 3252.5 1414.5 3245.32 1414.5 3239.5 1397.26 3239.5 1376 3239.5 1354.74 3245.32 1337.5 3252.5 1337.5Z" stroke="#000000" stroke-width="6.875" stroke-miterlimit="8" fill="#FFFFFF" fill-rule="evenodd"/><path d="M3226 1451.5C3232.9 1451.5 3238.5 1468.96 3238.5 1490.5 3238.5 1512.04 3232.9 1529.5 3226 1529.5 3219.1 1529.5 3213.5 1512.04 3213.5 1490.5 3213.5 1468.96 3219.1 1451.5 3226 1451.5Z" stroke="#000000" stroke-width="6.875" stroke-miterlimit="8" fill="#FFFFFF" fill-rule="evenodd"/></g></svg>